<svg xmlns="http://www.w3.org/2000/svg" xmlns:xlink="http://www.w3.org/1999/xlink" id="Capa_1" x="0" y="0" version="1.1" viewBox="0 0 438.5 438.5" style="enable-background:new 0 0 438.5 438.5" xml:space="preserve"><style type="text/css">.st0{fill:url(#SVGID_1_)}</style><linearGradient id="SVGID_1_" x1=".584" x2="437.547" y1="437.953" y2=".99" gradientTransform="matrix(-1 0 0 -1 438.532 438.534)" gradientUnits="userSpaceOnUse"><stop offset="0" style="stop-color:#00fbff"/><stop offset=".289" style="stop-color:#02d4f3"/><stop offset=".77" style="stop-color:#0599df"/><stop offset="1" style="stop-color:#0682d8"/></linearGradient><path d="M29.4,329.3c19.6,33.6,46.2,60.2,79.8,79.8c33.6,19.6,70.3,29.4,110.1,29.4c39.8,0,76.5-9.8,110.1-29.4	c33.6-19.6,60.2-46.2,79.8-79.8c19.6-33.6,29.4-70.3,29.4-110.1c0-39.8-9.8-76.5-29.4-110.1c-19.6-33.6-46.2-60.2-79.8-79.8	C295.7,9.8,259,0,219.3,0c-39.8,0-76.5,9.8-110.1,29.4C75.6,49,49,75.6,29.4,109.2C9.8,142.8,0,179.5,0,219.3	C0,259,9.8,295.7,29.4,329.3z M77.1,206.7l26-26c3.6-3.6,7.9-5.4,12.8-5.4c4.9,0,9.2,1.8,12.8,5.4l54,54V91.4	c0-4.9,1.8-9.2,5.4-12.8c3.6-3.6,7.9-5.4,12.8-5.4h36.5c4.9,0,9.2,1.8,12.8,5.4c3.6,3.6,5.4,7.9,5.4,12.8v143.3l54-54	c3.4-3.4,7.7-5.1,12.8-5.1c5.1,0,9.4,1.7,12.9,5.1l26,26c3.4,3.4,5.1,7.7,5.1,12.9c0,5.1-1.7,9.4-5.1,12.8L258.1,335.8l-26,26	c-3.4,3.4-7.7,5.1-12.8,5.1c-5.1,0-9.4-1.7-12.8-5.1l-26-26L77.1,232.4c-3.4-3.4-5.1-7.7-5.1-12.8C71.9,214.4,73.7,210.1,77.1,206.7	z" class="st0"/></svg>