<svg xmlns="http://www.w3.org/2000/svg" xmlns:xlink="http://www.w3.org/1999/xlink" x="0" y="0" version="1.1" viewBox="0 0 611 611" style="enable-background:new 0 0 611 611" xml:space="preserve"><style type="text/css">.st0{display:none}.st1,.st2{stroke-miterlimit:10}.st1{display:inline;fill:url(#Dark_Blue_1_);stroke:url(#Dark_Blue_2_)}.st2{fill:url(#SVGID_1_);stroke:url(#SVGID_2_)}</style><g xmlns:serif="http://www.serif.com/" id="Layer_1" class="st0"><linearGradient id="Dark_Blue_1_" x1="34.82" x2="576.18" y1="713.63" y2="259.375" gradientTransform="matrix(1 0 0 1 0 -181.0025)" gradientUnits="userSpaceOnUse"><stop offset="0" style="stop-color:#00e5ff"/><stop offset="1" style="stop-color:#0295ff"/></linearGradient><linearGradient id="Dark_Blue_2_" x1="-1" x2="612" y1="486.502" y2="486.502" gradientTransform="matrix(1 0 0 1 0 -181.0025)" gradientUnits="userSpaceOnUse"><stop offset="0" style="stop-color:#fff"/><stop offset="1" style="stop-color:#000"/></linearGradient><path id="Dark_Blue" d="M421,611.5H189.7c-105,0-190.2-85.2-190.2-190.2V190C-0.5,84.8,84.8-0.5,190-0.5h231.3 c105,0,190.2,85.2,190.2,190.2V421C611.5,526.2,526.2,611.5,421,611.5z M234.5,460.9c144.3,0,223.2-119.6,223.2-223.2 c0-2.6,0-5.2-0.1-7.8c-0.1-1.5,0.6-2.9,1.8-3.7c10.3-7.7,19.7-16.7,28-26.8c2.8-3.4-0.7-8.4-4.9-7c-4.1,1.4-8.3,2.5-12.5,3.6 c-4.4,1.1-7.4-4.4-4.1-7.6c6.1-5.9,11.3-12.9,15.3-20.6c2-3.8-2.1-8-6-6.1c-11.4,5.6-23.7,9.9-36.5,12.6c-1.5,0.3-3-0.1-4-1.2 c-14.3-14.3-33.9-23.1-55.6-23.1c-43.3,0-78.5,35.2-78.5,78.5c0,4.2,0.4,8.3,1,12.4c0.4,2.8-1.9,5.4-4.8,5.1 c-60.5-4.5-114.3-33.4-151.7-76.6c-2.1-2.5-6.1-1.9-7.5,1.1c-4.7,10.1-7.4,21.4-7.4,33.4c0,21.7,8.8,41.4,23,55.5 c3.2,3.2,0.2,8.6-4.2,7.5c-6.9-1.7-13.4-4.2-19.4-7.6v1.1c0,31.5,18.7,58.8,45.5,71.3c4.3,2,2.9,8.4-1.9,8.5c-0.5,0-1,0-1.4,0 c-2.5,0-5-0.1-7.5-0.4c-3.4-0.3-5.9,3.1-4.5,6.2c10.4,24,32.5,41.8,59.1,46.2c4,0.7,5.1,5.9,1.8,8.1 c-25.1,16.8-55.3,26.6-87.8,26.6h0c-4.7,0-6.2,6.3-2.1,8.4C161.9,451.6,197.2,460.9,234.5,460.9z" class="st1"/></g><g id="Layer_2"><linearGradient id="SVGID_1_" x1="35.299" x2="575.701" y1="532.226" y2="78.775" gradientUnits="userSpaceOnUse"><stop offset="0" style="stop-color:#00e5ff"/><stop offset="1" style="stop-color:#0295ff"/></linearGradient><linearGradient id="SVGID_2_" x1="-.5" x2="611.5" y1="305.5" y2="305.5" gradientUnits="userSpaceOnUse"><stop offset="0" style="stop-color:#fff"/><stop offset="1" style="stop-color:#000"/></linearGradient><path d="M421,0H190C85.1,0,0,85.1,0,190v231c0,104.9,85.1,190,190,190h231c104.9,0,190-85.1,190-190V190 C611,85.1,525.9,0,421,0z M379.1,531.8c-11.8,2.3-15.5-5-15.5-11.2v-63.8c0-21.7-7.6-35.8-16-43c51.8-5.8,106.2-25.4,106.2-114.7 c0-25.4-9-46.1-23.9-62.4c2.4-5.9,10.4-29.5-2.3-61.5c0,0-19.5-6.2-63.9,23.8c-18.6-5.1-38.5-7.7-58.2-7.8 c-19.8,0.1-39.6,2.7-58.2,7.8c-44.4-30.1-64-23.8-64-23.8c-12.6,32-4.7,55.7-2.3,61.5c-14.9,16.3-23.9,37-23.9,62.4 c0,89.1,54.3,109,105.9,114.9c-6.7,5.8-12.7,16.1-14.8,31.1c-13.3,5.9-46.9,16.2-67.6-19.3c0,0-12.3-22.3-35.6-24 c0,0-22.7-0.3-1.6,14.1c0,0,15.3,7.1,25.8,34c0,0,13.5,41.5,78.1,27.4v43.3c0,6.1-3.8,13.3-15.4,11.2C139.6,501.1,73,414,73,311.2 C73,182.8,177.1,78.7,305.5,78.7C433.9,78.7,538,182.8,538,311.2C538,413.9,471.5,501,379.1,531.8z" class="st2"/></g></svg>