<svg xmlns="http://www.w3.org/2000/svg" xmlns:xlink="http://www.w3.org/1999/xlink" id="Layer_1" x="0" y="0" version="1.1" viewBox="0 0 611 611" style="enable-background:new 0 0 611 611" xml:space="preserve"><style type="text/css">.st0{display:none}.st1{fill:url(#Dark_Blue_1_);stroke:url(#Dark_Blue_2_);stroke-miterlimit:10}.st1,.st2{display:inline}.st2,.st3{stroke-miterlimit:10}.st2{fill:url(#SVGID_1_);stroke:url(#SVGID_2_)}.st3{display:none;fill:url(#SVGID_3_);stroke:#000}.st4{fill:url(#SVGID_4_)}.st5{fill:url(#SVGID_5_)}.st5,.st6,.st7{display:none}.st6{fill:url(#SVGID_6_)}.st7{fill:url(#SVGID_7_);stroke:url(#SVGID_8_);stroke-miterlimit:10}.st8{fill:url(#SVGID_9_)}</style><g xmlns:serif="http://www.serif.com/" id="Layer_1_1_" class="st0"><linearGradient id="Dark_Blue_1_" x1="34.838" x2="576.162" y1="893.615" y2="439.39" gradientTransform="matrix(1 0 0 1 0 -361.0025)" gradientUnits="userSpaceOnUse"><stop offset="0" style="stop-color:#00e5ff"/><stop offset="1" style="stop-color:#0295ff"/></linearGradient><linearGradient id="Dark_Blue_2_" x1="-1" x2="612" y1="666.503" y2="666.503" gradientTransform="matrix(1 0 0 1 0 -361.0025)" gradientUnits="userSpaceOnUse"><stop offset="0" style="stop-color:#fff"/><stop offset="1" style="stop-color:#000"/></linearGradient><path id="Dark_Blue" d="M421,611.5H189.7c-105,0-190.2-85.2-190.2-190.2V190C-0.5,84.8,84.8-0.5,190-0.5h231.3 c105,0,190.2,85.2,190.2,190.2V421C611.5,526.2,526.2,611.5,421,611.5z M234.5,460.9c144.3,0,223.2-119.6,223.2-223.2 c0-2.6,0-5.2-0.1-7.8c-0.1-1.5,0.6-2.9,1.8-3.7c10.3-7.7,19.7-16.7,28-26.8c2.8-3.4-0.7-8.4-4.9-7c-4.1,1.4-8.3,2.5-12.5,3.6 c-4.4,1.1-7.4-4.4-4.1-7.6c6.1-5.9,11.3-12.9,15.3-20.6c2-3.8-2.1-8-6-6.1c-11.4,5.6-23.7,9.9-36.5,12.6c-1.5,0.3-3-0.1-4-1.2 c-14.3-14.3-33.9-23.1-55.6-23.1c-43.3,0-78.5,35.2-78.5,78.5c0,4.2,0.4,8.3,1,12.4c0.4,2.8-1.9,5.4-4.8,5.1 c-60.5-4.5-114.3-33.4-151.7-76.6c-2.1-2.5-6.1-1.9-7.5,1.1c-4.7,10.1-7.4,21.4-7.4,33.4c0,21.7,8.8,41.4,23,55.5 c3.2,3.2,0.2,8.6-4.2,7.5c-6.9-1.7-13.4-4.2-19.4-7.6v1.1c0,31.5,18.7,58.8,45.5,71.3c4.3,2,2.9,8.4-1.9,8.5c-0.5,0-1,0-1.4,0 c-2.5,0-5-0.1-7.5-0.4c-3.4-0.3-5.9,3.1-4.5,6.2c10.4,24,32.5,41.8,59.1,46.2c4,0.7,5.1,5.9,1.8,8.1 c-25.1,16.8-55.3,26.6-87.8,26.6l0,0c-4.7,0-6.2,6.3-2.1,8.4C161.9,451.6,197.2,460.9,234.5,460.9z" class="st1"/></g><g id="Layer_2_1_" class="st0"><linearGradient id="SVGID_1_" x1="35.311" x2="575.689" y1="712.216" y2="258.784" gradientTransform="matrix(1 0 0 1 0 -180)" gradientUnits="userSpaceOnUse"><stop offset="0" style="stop-color:#00e5ff"/><stop offset="1" style="stop-color:#0295ff"/></linearGradient><linearGradient id="SVGID_2_" x1="-.5" x2="611.5" y1="485.5" y2="485.5" gradientTransform="matrix(1 0 0 1 0 -180)" gradientUnits="userSpaceOnUse"><stop offset="0" style="stop-color:#fff"/><stop offset="1" style="stop-color:#000"/></linearGradient><path d="M421,0H190C85.1,0,0,85.1,0,190v231c0,104.9,85.1,190,190,190h231c104.9,0,190-85.1,190-190V190 C611,85.1,525.9,0,421,0z M379.1,531.8c-11.8,2.3-15.5-5-15.5-11.2v-63.8c0-21.7-7.6-35.8-16-43c51.8-5.8,106.2-25.4,106.2-114.7 c0-25.4-9-46.1-23.9-62.4c2.4-5.9,10.4-29.5-2.3-61.5c0,0-19.5-6.2-63.9,23.8c-18.6-5.1-38.5-7.7-58.2-7.8 c-19.8,0.1-39.6,2.7-58.2,7.8c-44.4-30.1-64-23.8-64-23.8c-12.6,32-4.7,55.7-2.3,61.5c-14.9,16.3-23.9,37-23.9,62.4 c0,89.1,54.3,109,105.9,114.9c-6.7,5.8-12.7,16.1-14.8,31.1c-13.3,5.9-46.9,16.2-67.6-19.3c0,0-12.3-22.3-35.6-24 c0,0-22.7-0.3-1.6,14.1c0,0,15.3,7.1,25.8,34c0,0,13.5,41.5,78.1,27.4v43.3c0,6.1-3.8,13.3-15.4,11.2C139.6,501.1,73,414,73,311.2 C73,182.8,177.1,78.7,305.5,78.7S538,182.8,538,311.2C538,413.9,471.5,501,379.1,531.8z" class="st2"/></g><linearGradient id="SVGID_3_" x1="0" x2="611" y1="305.5" y2="305.5" gradientUnits="userSpaceOnUse"><stop offset="0" style="stop-color:#fff"/><stop offset="1" style="stop-color:#000"/></linearGradient><rect width="611" height="611" class="st3"/><g class="st0"><linearGradient id="SVGID_4_" x1="232.778" x2="378.222" y1="347.486" y2="263.514" gradientUnits="userSpaceOnUse"><stop offset="0" style="stop-color:#00e4ff"/><stop offset="1" style="stop-color:#0296ff"/></linearGradient><circle cx="305.5" cy="305.5" r="84" class="st4"/><path d="M305.5,390c-46.6,0-84.5-37.9-84.5-84.5s37.9-84.5,84.5-84.5s84.5,37.9,84.5,84.5S352.1,390,305.5,390z M305.5,222 c-46,0-83.5,37.5-83.5,83.5c0,46,37.5,83.5,83.5,83.5c46,0,83.5-37.5,83.5-83.5C389,259.5,351.5,222,305.5,222z"/></g><linearGradient id="SVGID_5_" x1="232.778" x2="378.222" y1="347.486" y2="263.514" gradientUnits="userSpaceOnUse"><stop offset="0" style="stop-color:#00e4ff"/><stop offset="1" style="stop-color:#0296ff"/></linearGradient><circle cx="305.5" cy="305.5" r="84" class="st5"/><linearGradient id="SVGID_6_" x1="4.291" x2="606.709" y1="479.403" y2="131.597" gradientUnits="userSpaceOnUse"><stop offset="0" style="stop-color:#00e4ff"/><stop offset="1" style="stop-color:#0296ff"/></linearGradient><path d="M421,0H190C85.1,0,0,85.1,0,190v231c0,104.9,85.1,190,190,190h231c104.9,0,190-85.1,190-190V190	C611,85.1,525.9,0,421,0z M406.8,176.1l41.9-41.9c3.8-3.7,8.7-5.8,14-5.8c5.3,0,10.3,2.1,14,5.8c7.7,7.7,7.7,20.3,0,28.1l-41.9,42	c-3.8,3.7-8.7,5.8-14,5.8s-10.3-2.1-14-5.8c-3.7-3.8-5.8-8.7-5.8-14C401,184.8,403.1,179.8,406.8,176.1z M285.7,83	c0-10.9,8.9-19.8,19.8-19.8c10.9,0,19.8,8.9,19.8,19.8v59.3c0,10.9-8.9,19.8-19.8,19.8c-10.9,0-19.8-8.9-19.8-19.8V83z M133.7,134.2	c3.8-3.9,8.8-6.1,14.3-6.1c5.2,0,10.1,2,13.8,5.6c0.2,0.2,0.3,0.3,0.5,0.5l41.9,41.9c7.7,7.7,7.8,20.3,0,28l-0.1,0.1	c-3.8,3.7-8.7,5.8-14,5.8c-5.3,0-10.3-2.1-14-5.8l-42-42C126.4,154.7,126.1,142.1,133.7,134.2z M63.2,305.5	c0-10.9,8.9-19.8,19.8-19.8h59.3c10.9,0,19.8,8.9,19.8,19.8c0,10.9-8.9,19.8-19.8,19.8H83C72.1,325.3,63.2,316.4,63.2,305.5z M204.2,434.9l-41.9,42c-3.8,3.6-8.7,5.6-13.8,5.6c-5.4,0-10.5-2.2-14.3-6.1c-7.5-7.7-7.5-19.8,0-27.5l42-42c3.7-3.7,8.7-5.8,14-5.8	c5.3,0,10.3,2.1,14,5.8C211.9,414.6,211.9,427.2,204.2,434.9z M325.3,528c0,10.9-8.9,19.8-19.8,19.8c-10.9,0-19.8-8.9-19.8-19.8	v-59.3c0-10.9,8.9-19.8,19.8-19.8c10.9,0,19.8,8.9,19.8,19.8V528z M305.5,429.2c-68.2,0-123.7-55.5-123.7-123.7	s55.5-123.7,123.7-123.7s123.7,55.5,123.7,123.7S373.7,429.2,305.5,429.2z M476.8,476.8c-3.8,3.7-8.7,5.8-14,5.8	c-5.3,0-10.3-2.1-14-5.8l-41.9-42c-7.7-7.9-7.4-20.5,0.4-28.1c3.7-3.6,8.6-5.6,13.8-5.6c5.2,0,10.1,2,13.8,5.6l42,42	C484.6,456.5,484.6,469.1,476.8,476.8z M528,325.3h-59.3c-10.9,0-19.8-8.9-19.8-19.8c0-10.9,8.9-19.8,19.8-19.8H528	c10.9,0,19.8,8.9,19.8,19.8C547.8,316.4,538.9,325.3,528,325.3z" class="st6"/><linearGradient id="SVGID_7_" x1="34.811" x2="575.189" y1="79.784" y2="533.216" gradientTransform="matrix(1 0 0 -1 0 612)" gradientUnits="userSpaceOnUse"><stop offset="0" style="stop-color:#00e5ff"/><stop offset="1" style="stop-color:#0295ff"/></linearGradient><linearGradient id="SVGID_8_" x1="-1" x2="611" y1="306.5" y2="306.5" gradientTransform="matrix(1 0 0 -1 0 612)" gradientUnits="userSpaceOnUse"><stop offset="0" style="stop-color:#fff"/><stop offset="1" style="stop-color:#000"/></linearGradient><path d="M420.5,0h-231C84.6,0-0.5,85.1-0.5,190v231c0,104.9,85.1,190,190,190h231c104.9,0,190-85.1,190-190V190	C610.5,85.1,525.4,0,420.5,0z M164.7,128.1c27.7,0,48.1,16.6,49.4,40.3c0,24.6-20.8,42.1-49.4,42.1c-28.1,0-49.4-17.9-49.4-41.6	C115.3,145.3,136.1,128.1,164.7,128.1z M214.2,474.6c0,4.5-3.7,8.3-8.3,8.3h-82.5c-4.5,0-8.3-3.7-8.3-8.3V235.3	c0-4.5,3.7-8.3,8.3-8.3H206c4.5,0,8.3,3.7,8.3,8.3v239.3H214.2z M494.8,474.6c0,4.5-3.7,8.3-8.3,8.3h-74.3c-4.6,0-8.3-3.7-8.3-8.3	V346.7c0-19.6-15-35.5-34.2-37c-1-0.2-2-0.2-3-0.2s-2,0-3,0.2c-19.1,1.5-34.2,17.4-34.2,37v127.9c0,4.5-3.7,8.3-8.3,8.3h-74.3	c-4.5,0-8.3-3.7-8.3-8.3V235.3c0-4.5,3.7-8.3,8.3-8.3h82.5c4.5,0,8.3,3.7,8.3,8.3v12.3c13.3-9.3,35.2-20.5,64.3-20.5	c63.9,0,92.5,53.9,92.5,107.3v140.2H494.8z" class="st7"/><linearGradient id="SVGID_9_" x1="4.291" x2="606.709" y1="479.403" y2="131.597" gradientUnits="userSpaceOnUse"><stop offset="0" style="stop-color:#00e4ff"/><stop offset="1" style="stop-color:#0296ff"/></linearGradient><path d="M305.5,221.9c-46.2,0-83.6,37.4-83.6,83.6c0,46.2,37.4,83.6,83.6,83.6s83.6-37.4,83.6-83.6	C389.1,259.3,351.7,221.9,305.5,221.9z M305.5,221.9c-46.2,0-83.6,37.4-83.6,83.6c0,46.2,37.4,83.6,83.6,83.6s83.6-37.4,83.6-83.6	C389.1,259.3,351.7,221.9,305.5,221.9z M305.5,221.9c-46.2,0-83.6,37.4-83.6,83.6c0,46.2,37.4,83.6,83.6,83.6s83.6-37.4,83.6-83.6	C389.1,259.3,351.7,221.9,305.5,221.9z M305.5,221.9c-46.2,0-83.6,37.4-83.6,83.6c0,46.2,37.4,83.6,83.6,83.6s83.6-37.4,83.6-83.6	C389.1,259.3,351.7,221.9,305.5,221.9z M305.5,221.9c-46.2,0-83.6,37.4-83.6,83.6c0,46.2,37.4,83.6,83.6,83.6s83.6-37.4,83.6-83.6	C389.1,259.3,351.7,221.9,305.5,221.9z M305.5,221.9c-46.2,0-83.6,37.4-83.6,83.6c0,46.2,37.4,83.6,83.6,83.6s83.6-37.4,83.6-83.6	C389.1,259.3,351.7,221.9,305.5,221.9z M305.5,221.9c-46.2,0-83.6,37.4-83.6,83.6c0,46.2,37.4,83.6,83.6,83.6s83.6-37.4,83.6-83.6	C389.1,259.3,351.7,221.9,305.5,221.9z M305.5,221.9c-46.2,0-83.6,37.4-83.6,83.6c0,46.2,37.4,83.6,83.6,83.6s83.6-37.4,83.6-83.6	C389.1,259.3,351.7,221.9,305.5,221.9z M421,0H190C85.1,0,0,85.1,0,190v231c0,104.9,85.1,190,190,190h231c104.9,0,190-85.1,190-190	V190C611,85.1,525.9,0,421,0z M404,187.3l39.4-39.4c5.4-5.4,14.3-5.4,19.7,0s5.4,14.3,0,19.7L423.7,207c-5.4,5.4-14.3,5.4-19.7,0	C398.6,201.5,398.6,192.7,404,187.3z M291.6,96.5c0-7.7,6.2-13.9,13.9-13.9s13.9,6.2,13.9,13.9v55.7c0,7.7-6.2,13.9-13.9,13.9	s-13.9-6.2-13.9-13.9V96.5z M147.5,147.8c5.3-5.5,14.2-5.7,19.7-0.3c0.1,0.1,0.2,0.2,0.3,0.3l39.4,39.4c5.5,5.4,5.5,14.3,0,19.7	c0,0,0,0,0,0c-5.4,5.4-14.3,5.4-19.7,0l-39.4-39.4C142.3,162.2,142.2,153.4,147.5,147.8z M82.6,305.5c0-7.7,6.2-13.9,13.9-13.9h55.7	c7.7,0,13.9,6.2,13.9,13.9c0,7.7-6.2,13.9-13.9,13.9H96.5C88.8,319.4,82.6,313.2,82.6,305.5z M207,423.7l-39.4,39.4	c-5.5,5.3-14.4,5.2-19.7-0.4c-5.2-5.4-5.2-14,0-19.3l39.4-39.4c5.4-5.4,14.3-5.4,19.7,0S212.4,418.3,207,423.7z M319.4,514.4	c0,7.7-6.2,13.9-13.9,13.9s-13.9-6.2-13.9-13.9v-55.7c0-7.7,6.2-13.9,13.9-13.9s13.9,6.2,13.9,13.9V514.4z M305.5,416.9	C244,416.9,194,367,194,305.5C194,243.9,244,194,305.5,194S417,243.9,417,305.5C417,367,367,416.9,305.5,416.9z M463.1,463.1	c-5.4,5.4-14.3,5.4-19.7,0L404,423.7c-5.3-5.5-5.2-14.4,0.3-19.7c5.4-5.2,14-5.2,19.4,0l39.4,39.4	C468.6,448.8,468.6,457.6,463.1,463.1z M514.5,319.4h-55.7c-7.7,0-13.9-6.2-13.9-13.9c0-7.7,6.2-13.9,13.9-13.9h55.7	c7.7,0,13.9,6.2,13.9,13.9C528.4,313.2,522.2,319.4,514.5,319.4z M305.5,221.9c-46.2,0-83.6,37.4-83.6,83.6	c0,46.2,37.4,83.6,83.6,83.6s83.6-37.4,83.6-83.6C389.1,259.3,351.7,221.9,305.5,221.9z M305.5,221.9c-46.2,0-83.6,37.4-83.6,83.6	c0,46.2,37.4,83.6,83.6,83.6s83.6-37.4,83.6-83.6C389.1,259.3,351.7,221.9,305.5,221.9z M305.5,221.9c-46.2,0-83.6,37.4-83.6,83.6	c0,46.2,37.4,83.6,83.6,83.6s83.6-37.4,83.6-83.6C389.1,259.3,351.7,221.9,305.5,221.9z M305.5,221.9c-46.2,0-83.6,37.4-83.6,83.6	c0,46.2,37.4,83.6,83.6,83.6s83.6-37.4,83.6-83.6C389.1,259.3,351.7,221.9,305.5,221.9z M305.5,221.9c-46.2,0-83.6,37.4-83.6,83.6	c0,46.2,37.4,83.6,83.6,83.6s83.6-37.4,83.6-83.6C389.1,259.3,351.7,221.9,305.5,221.9z M305.5,221.9c-46.2,0-83.6,37.4-83.6,83.6	c0,46.2,37.4,83.6,83.6,83.6s83.6-37.4,83.6-83.6C389.1,259.3,351.7,221.9,305.5,221.9z M305.5,221.9c-46.2,0-83.6,37.4-83.6,83.6	c0,46.2,37.4,83.6,83.6,83.6s83.6-37.4,83.6-83.6C389.1,259.3,351.7,221.9,305.5,221.9z" class="st8"/></svg>